<svg xmlns="http://www.w3.org/2000/svg" xmlns:xlink="http://www.w3.org/1999/xlink" id="Layer_1" data-name="Layer 1" viewBox="0 0 806.96 221.99"><defs><style>.cls-1{fill:none;}.cls-2{fill:#575b43;}.cls-3{fill:#6c7154;opacity:0.3;}.cls-4{clip-path:url(#clip-path);}.cls-5{fill:#5db696;}.cls-6{fill:#1f6774;}.cls-7{fill:#1072ac;}.cls-8{fill:#6d0c18;}.cls-9{fill:#039381;}</style><clipPath id="clip-path"><path class="cls-1" d="M132.9,190.75c-2.57.57-4.09-.19-4.87-1.67l22.34-17.27.46-1.7L164.64,125,104.58,51.25,90.33,98l61.21,75.43-23.46,15.88L80.39,130.71l-23,74.8s-.86,3.49-4.24,2.31c-4.65-1.61-15.61-5.61-20.38-7.44-2.17-.84-1.61-3.9-1.61-3.9L77.87,45.76s-.32-2.4,3.9-3.47c9.86-2.49,29.83-7.5,40.94-9a5.49,5.49,0,0,1,5,1.52l47,57.5,22.58-73.7a3.37,3.37,0,0,1,4.35-2.29L218,22.21c1.81.66,4.44,3.3,3.85,5.22L176.72,179.26c-.59,1.92-2.75,2.36-4,2.76Z"></path></clipPath></defs><path class="cls-2" d="M292.56,105.5Q298.91,94.93,305,84.08t11-21.85h19.73Q327.8,77.17,319.27,91.9T301,121.56V159.9H283.26V121.85Q273.54,106.76,264.94,92T248.46,62.23h20.85q4.94,11,10.85,21.85T292.56,105.5Z"></path><path class="cls-2" d="M351.33,62.23h17.76V159.9H351.33Z"></path><path class="cls-2" d="M419.68,146.65q9.58,0,13.95-3.24a10.75,10.75,0,0,0,4.37-9.16,11.78,11.78,0,0,0-1.48-6.06,15.54,15.54,0,0,0-4.23-4.58,35.75,35.75,0,0,0-6.69-3.81q-3.94-1.76-9-3.45t-9.8-4a33,33,0,0,1-8.31-5.42,25,25,0,0,1-5.78-7.75,24.67,24.67,0,0,1-2.18-10.85q0-13.25,9.16-20.79T424.61,60a59.21,59.21,0,0,1,16.28,2,50.53,50.53,0,0,1,11.2,4.44L446.6,80.84a42.09,42.09,0,0,0-10.5-4.09,48.93,48.93,0,0,0-11.77-1.41q-7.18,0-11.2,3a9.73,9.73,0,0,0-4,8.31,10.89,10.89,0,0,0,1.34,5.57,13.76,13.76,0,0,0,3.8,4.16A33.48,33.48,0,0,0,420,99.72c2.21,1,4.63,2,7.26,3q6.9,2.53,12.33,5.14a35,35,0,0,1,9.16,6.2,24.39,24.39,0,0,1,5.71,8.46,31.43,31.43,0,0,1,2,11.77q0,13.25-9.37,20.5T419.68,162a72,72,0,0,1-11.06-.78,69.67,69.67,0,0,1-8.88-1.9A59.71,59.71,0,0,1,393,157a41.08,41.08,0,0,1-4.51-2.19l5.22-14.51A59.28,59.28,0,0,0,404,144.53,50.73,50.73,0,0,0,419.68,146.65Z"></path><path class="cls-2" d="M499.3,146.65q9.58,0,13.95-3.24a10.75,10.75,0,0,0,4.37-9.16,11.78,11.78,0,0,0-1.48-6.06,15.41,15.41,0,0,0-4.23-4.58,35.75,35.75,0,0,0-6.69-3.81q-3.95-1.76-9-3.45t-9.79-4a32.9,32.9,0,0,1-8.32-5.42,25.2,25.2,0,0,1-5.78-7.75,24.82,24.82,0,0,1-2.18-10.85q0-13.25,9.16-20.79T504.23,60a59.21,59.21,0,0,1,16.28,2,50.53,50.53,0,0,1,11.2,4.44l-5.49,14.38a42.09,42.09,0,0,0-10.5-4.09A48.93,48.93,0,0,0,504,75.34q-7.18,0-11.2,3a9.73,9.73,0,0,0-4,8.31,11,11,0,0,0,1.34,5.57,13.76,13.76,0,0,0,3.8,4.16,33.48,33.48,0,0,0,5.78,3.38c2.21,1,4.63,2,7.26,3q6.9,2.53,12.33,5.14a35,35,0,0,1,9.16,6.2,24.39,24.39,0,0,1,5.71,8.46,31.43,31.43,0,0,1,2,11.77q0,13.25-9.37,20.5T499.3,162a72,72,0,0,1-11.06-.78,69.67,69.67,0,0,1-8.88-1.9,58.79,58.79,0,0,1-6.69-2.32,40.2,40.2,0,0,1-4.51-2.19l5.21-14.51a59.61,59.61,0,0,0,10.29,4.22A50.73,50.73,0,0,0,499.3,146.65Z"></path><path class="cls-2" d="M591.61,162a46,46,0,0,1-17.2-2.89,31.65,31.65,0,0,1-11.9-8.1,32.94,32.94,0,0,1-7-12.26,50.47,50.47,0,0,1-2.26-15.5v-61h17.9v59.33a38.45,38.45,0,0,0,1.48,11.35,19.82,19.82,0,0,0,4.23,7.68,16.88,16.88,0,0,0,6.48,4.37,23.62,23.62,0,0,0,8.39,1.41A24.12,24.12,0,0,0,600.2,145a16.86,16.86,0,0,0,6.56-4.37,19.68,19.68,0,0,0,4.22-7.68,38.12,38.12,0,0,0,1.48-11.35V62.23h17.9v61a49.27,49.27,0,0,1-2.32,15.5A33.93,33.93,0,0,1,621,151a31.61,31.61,0,0,1-12,8.1A47.08,47.08,0,0,1,591.61,162Z"></path><path class="cls-2" d="M653.13,65q5.83-1.5,15.42-3.19a128.5,128.5,0,0,1,22.17-1.7,40.68,40.68,0,0,1,15.33,2.54,26.94,26.94,0,0,1,10.4,7.43q1.27-.94,4-2.64a44.12,44.12,0,0,1,6.76-3.28,67.39,67.39,0,0,1,8.94-2.82,43.54,43.54,0,0,1,10.58-1.23q10.95,0,17.88,3.29a25.92,25.92,0,0,1,10.86,9.31A36.73,36.73,0,0,1,780.77,87a110,110,0,0,1,1.37,18V159.9h-17V108.77a114.59,114.59,0,0,0-.82-14.84,29.4,29.4,0,0,0-3.1-10.34A14.4,14.4,0,0,0,755,77.48a22.46,22.46,0,0,0-10.12-2q-8.58,0-14.15,2.35t-7.57,4.22a67.17,67.17,0,0,1,2.19,10.72,97.61,97.61,0,0,1,.73,12.21V159.9h-17V108.77a103.45,103.45,0,0,0-.91-14.84,30.89,30.89,0,0,0-3.19-10.34,14.46,14.46,0,0,0-6.21-6.11,22,22,0,0,0-9.94-2c-1.71,0-3.53.06-5.48.18s-3.8.29-5.56.47-3.38.41-4.84.66-2.43.44-2.92.57V159.9h-17Z"></path><path class="cls-3" d="M88,55.41c-2.55.65-4.55,2.75-3.28,4.23l9.32,11.69L145,130.84l30.46-8.34L114.13,51.34c-1.27-1.47-3.41-.91-4.71-.7Z"></path><path class="cls-3" d="M132.79,170.73l19-61.36,23.67,13.13L155,180.33C153.67,178.85,132.79,170.73,132.79,170.73Z"></path><path class="cls-3" d="M154.1,101.92s27.4-81.61,27.42-81.65c.87-1.87,1.55-2.39,3.7-2.76,4.33-.74,15.58-1.46,15.58-1.46L172.71,122C171.64,119.79,154.1,101.92,154.1,101.92Z"></path><g class="cls-4"><path class="cls-5" d="M98-25.79c-3.59-3.87-8.09-6.27-9.1-3L80.08-4.23,51.36,90.53,186.73,202.61,224.78,64.15c2.88-9.55-95.21-55.63-96.86-57.68Z"></path><path class="cls-6" d="M22.82,217.17c-5,.66-9.91-.39-8.93-3.55l6.41-24.54L49.13,97.73l56.67-7.49,67.79,139.43c-2.9,9.2-106.68-18.52-109.12-18Z"></path><path class="cls-7" d="M22.82,217.17c-5,.66-9.91-.39-8.93-3.55l6.41-24.54,10.33-20.62L75.15,163l98.44,66.65c-2.9,9.2-106.68-18.52-109.12-18Z"></path><path class="cls-8" d="M158.88,226.41c2.23,2.45,5,4,5.69,1.87l5.59-15.74,18.4-60.66L161.74,128.7,85.45,178.23c-.65,2.09,53.76,26.42,54.78,27.72Z"></path><path class="cls-8" d="M188.47,14.56C191,14,208.17-2.64,207.58-.72l44.49,12.4-7,46L155.17,47.45,163,22c-32.16-13.85,2.75-2.36,4-2.75Z"></path><path class="cls-9" d="M215.11,45.72c2.56-.57,5-.12,4.45,1.81l-4,14.82-17.42,55.4L169,124.18,146.17,40.29c.59-1.92,46.25,10.55,47.51,10.16Z"></path></g></svg>